<svg width="36" height="36" viewBox="0 0 36 36" fill="none" xmlns="http://www.w3.org/2000/svg">
<path d="M36 32C36 32 36 36 32 36H4C4 36 0 36 0 32V4C0 0 4 0 4 0H32C36 0 36 4 36 4V32Z" fill="#88C9F9"/>
<path d="M24 2C25 2 26 5 27 5C28 5 30 5 30 6C30 7 27 7 27 8C27 9 26 9 25 9C24 9 22 9 22 8C22 7 24 8 24 7C24 6 23 2 24 2ZM21 10C21 9 23 9 23 9C23 9 24 11 23 11C22 11 21 10 21 10ZM23 12C22 12 22 14 22 15C22 16 22 18 21 18C20 18 19 19 19 20C19 21 18 22 17 22C16 22 15 24 15 24C15 24 11 25 10 25C9 25 7 25 7 26C7 27 4 28 6 28C8 28 8 27 9 27H11C11 27 14 26 14 27C14 28 14 29 15 29C16 29 17 28 17 27C17 26 18 26 19 26C20 26 21 26 21 25C21 24 22 23 23 23C24 23 24 21 24 20C24 19 24 17 25 17C26 17 27 14 26 14C25 14 24 14 24 13C24 12 23 12 23 12Z" fill="#3E721D"/>
<path d="M8 30C8 29 8 28 9 28H12C13 28 13 28 12 29C11 30 11 29 10 29C9 29 10 31 9 31C8 31 8 30 8 30ZM4 33C4 32 5 32 5 31C5 30 4 31 4 30C4 29 5 29 6 29C7 29 7 30 7 31C7 32 6 32 6 33C6 34 5 34 5 34C5 34 4 34 4 33Z" fill="#3E721D"/>
<path d="M16.5 2H3.5C2.6715 2 2 2.6715 2 3.5V16.5C2 17.3285 2.6715 18 3.5 18H16.5C17.3285 18 18 17.3285 18 16.5V3.5C18 2.6715 17.3285 2 16.5 2Z" fill="#CCD6DD"/>
<path d="M16.5 1.5H3.5C2.3955 1.5 1.5 2.3955 1.5 3.5V16.5C1.5 17.6045 2.3955 18.5 3.5 18.5H16.5C17.6045 18.5 18.5 17.6045 18.5 16.5V3.5C18.5 2.3955 17.6045 1.5 16.5 1.5ZM16.5 2.5C17.0515 2.5 17.5 2.9485 17.5 3.5V5.5H14.5V2.5H16.5ZM14.5 10.5H17.5V13.5H14.5V10.5ZM14.5 9.5V6.5H17.5V9.5H14.5ZM13.5 2.5V5.5H10.5V2.5H13.5ZM10.5 6.5H13.5V9.5H10.5V6.5ZM10.5 10.5H13.5V13.5H10.5V10.5ZM9.5 2.5V5.5H6.5V2.5H9.5ZM6.5 6.5H9.5V9.5H6.5V6.5ZM6.5 10.5H9.5V13.5H6.5V10.5ZM2.5 3.5C2.5 2.9485 2.9485 2.5 3.5 2.5H5.5V5.5H2.5V3.5ZM2.5 6.5H5.5V9.5H2.5V6.5ZM2.5 10.5H5.5V13.5H2.5V10.5ZM3.5 17.5C2.9485 17.5 2.5 17.0515 2.5 16.5V14.5H5.5V17.5H3.5ZM6.5 17.5V14.5H9.5V17.5H6.5ZM10.5 17.5V14.5H13.5V17.5H10.5ZM16.5 17.5H14.5V14.5H17.5V16.5C17.5 17.0515 17.0515 17.5 16.5 17.5Z" fill="#E1E8ED"/>
<path d="M3.499 17.5C3.339 17.5 3.1765 17.462 3.026 17.3805C2.5395 17.119 2.358 16.5125 2.6195 16.026L6.1195 9.52598C6.269 9.24748 6.542 9.05648 6.8545 9.01048C7.1675 8.96448 7.4835 9.06948 7.707 9.29298L10.745 12.331L15.614 3.03598C15.87 2.54698 16.4745 2.35748 16.9635 2.61448C17.453 2.87048 17.6415 3.47498 17.3855 3.96448L11.8855 14.4645C11.738 14.7465 11.465 14.941 11.1505 14.9895C10.837 15.035 10.5175 14.933 10.2925 14.708L7.2425 11.6585L4.3805 16.974C4.2 17.3095 3.855 17.5 3.499 17.5Z" fill="#DD2E44"/>
</svg>
