<svg width="60" height="60" viewBox="0 0 60 60" fill="none" xmlns="http://www.w3.org/2000/svg">
<rect width="60" height="60" fill="#88C9F9"/>
<path d="M36 14C37 14 38 17 39 17C40 17 42 17 42 18C42 19 39 19 39 20C39 21 38 21 37 21C36 21 34 21 34 20C34 19 36 20 36 19C36 18 35 14 36 14ZM33 22C33 21 35 21 35 21C35 21 36 23 35 23C34 23 33 22 33 22ZM35 24C34 24 34 26 34 27C34 28 34 30 33 30C32 30 31 31 31 32C31 33 30 34 29 34C28 34 27 36 27 36C27 36 23 37 22 37C21 37 19 37 19 38C19 39 16 40 18 40C20 40 20 39 21 39H23C23 39 26 38 26 39C26 40 26 41 27 41C28 41 29 40 29 39C29 38 30 38 31 38C32 38 33 38 33 37C33 36 34 35 35 35C36 35 36 33 36 32C36 31 36 29 37 29C38 29 39 26 38 26C37 26 36 26 36 25C36 24 35 24 35 24Z" fill="#3E721D"/>
<path d="M20 42C20 41 20 40 21 40H24C25 40 25 40 24 41C23 42 23 41 22 41C21 41 22 43 21 43C20 43 20 42 20 42ZM16 45C16 44 17 44 17 43C17 42 16 43 16 42C16 41 17 41 18 41C19 41 19 42 19 43C19 44 18 44 18 45C18 46 17 46 17 46C17 46 16 46 16 45Z" fill="#3E721D"/>
<path d="M28.5 14H15.5C14.6715 14 14 14.6715 14 15.5V28.5C14 29.3285 14.6715 30 15.5 30H28.5C29.3285 30 30 29.3285 30 28.5V15.5C30 14.6715 29.3285 14 28.5 14Z" fill="#CCD6DD"/>
<path d="M28.5 13.5H15.5C14.3955 13.5 13.5 14.3955 13.5 15.5V28.5C13.5 29.6045 14.3955 30.5 15.5 30.5H28.5C29.6045 30.5 30.5 29.6045 30.5 28.5V15.5C30.5 14.3955 29.6045 13.5 28.5 13.5ZM28.5 14.5C29.0515 14.5 29.5 14.9485 29.5 15.5V17.5H26.5V14.5H28.5ZM26.5 22.5H29.5V25.5H26.5V22.5ZM26.5 21.5V18.5H29.5V21.5H26.5ZM25.5 14.5V17.5H22.5V14.5H25.5ZM22.5 18.5H25.5V21.5H22.5V18.5ZM22.5 22.5H25.5V25.5H22.5V22.5ZM21.5 14.5V17.5H18.5V14.5H21.5ZM18.5 18.5H21.5V21.5H18.5V18.5ZM18.5 22.5H21.5V25.5H18.5V22.5ZM14.5 15.5C14.5 14.9485 14.9485 14.5 15.5 14.5H17.5V17.5H14.5V15.5ZM14.5 18.5H17.5V21.5H14.5V18.5ZM14.5 22.5H17.5V25.5H14.5V22.5ZM15.5 29.5C14.9485 29.5 14.5 29.0515 14.5 28.5V26.5H17.5V29.5H15.5ZM18.5 29.5V26.5H21.5V29.5H18.5ZM22.5 29.5V26.5H25.5V29.5H22.5ZM28.5 29.5H26.5V26.5H29.5V28.5C29.5 29.0515 29.0515 29.5 28.5 29.5Z" fill="#E1E8ED"/>
<path d="M15.499 29.5C15.339 29.5 15.1765 29.462 15.026 29.3805C14.5395 29.119 14.358 28.5125 14.6195 28.026L18.1195 21.526C18.269 21.2475 18.542 21.0565 18.8545 21.0105C19.1675 20.9645 19.4835 21.0695 19.707 21.293L22.745 24.331L27.614 15.036C27.87 14.547 28.4745 14.3575 28.9635 14.6145C29.453 14.8705 29.6415 15.475 29.3855 15.9645L23.8855 26.4645C23.738 26.7465 23.465 26.941 23.1505 26.9895C22.837 27.035 22.5175 26.933 22.2925 26.708L19.2425 23.6585L16.3805 28.974C16.2 29.3095 15.855 29.5 15.499 29.5Z" fill="#DD2E44"/>
</svg>
